<?xml version="1.0" standalone="no"?>
<!DOCTYPE svg PUBLIC "-//W3C//DTD SVG 20010904//EN"
 "http://www.w3.org/TR/2001/REC-SVG-20010904/DTD/svg10.dtd">
<svg version="1.0" xmlns="http://www.w3.org/2000/svg"
 width="200.000000pt" height="200.000000pt" viewBox="0 0 200.000000 200.000000"
 preserveAspectRatio="xMidYMid meet">
<metadata>
Created by potrace 1.11, written by Peter Selinger 2001-2013
</metadata>
<g transform="translate(0.000000,200.000000) scale(0.100000,-0.100000)"
fill="#000000" stroke="none">
<path d="M865 1688 c-33 -17 -63 -35 -67 -42 -4 -6 -8 -7 -8 -3 0 4 -10 3 -21
-4 -15 -8 -24 -8 -28 -1 -4 6 -15 9 -26 7 -11 -2 -23 -4 -26 -4 -15 -2 -43
-58 -41 -81 3 -31 12 -39 48 -46 43 -8 49 -20 17 -33 -54 -22 -72 -21 -92 5
-11 14 -22 30 -24 37 -3 8 -8 9 -15 2 -13 -13 3 -36 38 -56 31 -16 39 -17 68
-7 31 11 28 -5 -12 -48 -40 -44 -52 -91 -35 -138 12 -32 10 -35 -48 -104 -65
-77 -86 -129 -84 -204 1 -50 34 -118 67 -136 13 -7 14 -13 5 -30 -14 -26 9
-52 45 -52 13 0 25 -4 25 -10 2 -12 5 -27 9 -37 2 -5 4 -12 5 -18 3 -25 47
-103 76 -137 41 -48 46 -123 12 -160 -26 -27 -30 -60 -9 -77 18 -15 92 -21
133 -9 26 7 55 35 68 65 0 1 16 5 35 8 19 3 44 16 56 29 16 18 28 22 48 19 29
-6 42 -24 50 -69 9 -48 31 -57 134 -56 69 1 87 46 39 100 -22 24 -17 35 21 47
18 5 22 2 22 -14 0 -36 35 -58 97 -60 70 -2 103 16 95 54 -2 15 -11 29 -18 32
-7 3 -16 20 -20 38 -5 30 -1 40 37 84 40 46 74 113 86 171 12 51 4 148 -15
198 -19 49 -19 52 -2 52 20 0 70 47 70 66 0 7 5 14 11 16 14 5 -16 63 -33 64
-36 1 -48 -34 -22 -61 15 -15 15 -17 0 -34 -30 -33 -53 -32 -78 2 -54 74 -132
138 -212 177 -46 22 -91 40 -102 40 -49 0 -61 10 -61 50 0 22 -9 52 -19 67
-46 68 -46 71 -4 78 48 8 73 35 72 77 -1 41 -35 71 -74 66 -15 -3 -26 -2 -23
0 4 4 -203 114 -208 111 -1 -1 -29 -15 -62 -31z m-74 -95 c0 -5 3 -21 5 -38 4
-28 3 -29 -11 -11 -17 22 -20 56 -5 56 6 0 10 -3 11 -7z m318 -35 c-4 -24 -8
-46 -9 -51 0 -4 -9 -2 -20 5 -36 23 -21 88 21 88 14 0 15 -6 8 -42z m-433
-222 c-6 -30 -14 -52 -18 -50 -11 7 -10 47 2 78 17 45 26 28 16 -28z m490 -15
c-2 -50 -18 -36 -21 19 -3 50 -3 53 9 31 7 -13 13 -35 12 -50z m494 -212 c0
-5 -4 -9 -10 -9 -5 0 -10 7 -10 16 0 8 5 12 10 9 6 -3 10 -10 10 -16z"/>
<path d="M776 1675 c-11 -8 -18 -17 -15 -19 2 -2 15 4 28 15 27 22 15 26 -13
4z"/>
<path d="M1712 1129 c-7 -11 -11 -24 -8 -27 10 -9 28 15 24 32 -2 14 -5 13
-16 -5z"/>
</g>
</svg>
